<svg version="1.1" id="Layer_1" xmlns="http://www.w3.org/2000/svg" xmlns:xlink="http://www.w3.org/1999/xlink" x="0px" y="0px"
	 width="100%" viewBox="0 0 1024 1024" enable-background="new 0 0 1024 1024" xml:space="preserve">
<path fill="#EAEAEA" opacity="1.000000" stroke="none" 
	d="
M948.000000,1025.000000 
	C632.000000,1025.000000 316.500000,1025.000000 1.000000,1025.000000 
	C1.000000,683.666687 1.000000,342.333344 1.000000,1.000000 
	C342.333344,1.000000 683.666687,1.000000 1025.000000,1.000000 
	C1025.000000,342.333344 1025.000000,683.666687 1025.000000,1025.000000 
	C999.500000,1025.000000 974.000000,1025.000000 948.000000,1025.000000 
M468.408722,525.757080 
	C468.484924,523.505920 468.561157,521.254822 468.900482,518.285645 
	C469.276886,516.839966 469.539307,515.352783 470.048615,513.955566 
	C472.885345,506.173340 480.377777,501.823273 488.715393,503.051422 
	C495.271423,504.017181 499.129456,509.018250 499.819977,517.598877 
	C499.993317,519.752686 499.923889,521.928040 499.925293,524.093506 
	C499.932495,535.256653 499.991852,546.420471 499.888733,557.582642 
	C499.853973,561.344116 501.236115,563.259644 505.174255,562.943176 
	C506.498260,562.836792 507.838623,562.940552 509.171509,562.937622 
	C516.185913,562.922058 516.778992,562.221313 516.731201,555.171387 
	C516.651123,543.343384 516.506653,531.510681 516.746399,519.687256 
	C516.924072,510.922791 521.964478,504.662720 529.289795,503.192200 
	C538.962830,501.250397 546.487732,507.169830 546.894653,517.751465 
	C547.329651,529.065613 547.125000,540.405823 547.130920,551.734619 
	C547.137146,563.520996 547.552429,563.881653 559.148071,563.008301 
	C562.295044,562.771240 563.635803,561.332275 563.614624,558.294189 
	C563.511047,543.470032 563.741699,528.634827 563.233093,513.824890 
	C562.854736,502.807556 558.451172,493.509247 547.585999,489.174011 
	C535.840515,484.487610 524.717712,486.254486 514.827393,494.418854 
	C513.609924,495.423828 512.429199,496.473297 511.326263,497.420685 
	C498.068512,483.200836 483.944916,484.063995 468.731537,494.509796 
	C468.454803,487.995087 464.478333,487.647064 460.026733,488.033966 
	C459.365387,488.091431 458.685089,488.111572 458.029572,488.026154 
	C453.293091,487.408936 451.641449,489.280243 451.714233,494.190582 
	C451.998047,513.347351 451.899170,532.509949 451.912842,551.670410 
	C451.921387,563.605469 451.893341,563.516418 463.756805,562.969238 
	C466.924957,562.823120 468.464142,561.477966 468.461243,558.486633 
	C468.454193,551.180786 468.308319,543.875061 468.431274,535.795959 
	C468.320648,533.391663 468.210022,530.987305 468.397736,528.269165 
	C468.297272,527.651611 468.196838,527.034058 468.408722,525.757080 
M689.113831,457.989349 
	C687.015198,463.352142 684.916504,468.714905 682.654541,474.215149 
	C682.654541,474.215149 682.663635,474.428406 682.146179,474.916687 
	C679.051819,483.464630 675.957458,492.012573 672.331238,501.088806 
	C671.491943,503.700317 670.652588,506.311829 669.936035,508.974091 
	C669.936035,508.974091 669.844666,508.877686 669.272705,509.267334 
	C663.539795,524.147766 657.800903,539.025818 652.078430,553.910278 
	C650.760254,557.338989 649.725159,560.890930 654.142151,562.834961 
	C659.351135,565.127686 665.874695,563.460388 667.580078,559.455139 
	C669.727173,554.412537 671.909241,549.342041 673.456238,544.100586 
	C674.675110,539.970581 676.889832,538.834839 680.985596,538.928894 
	C690.287048,539.142761 699.599548,538.871521 709.817017,538.918945 
	C719.527405,539.024292 719.526611,539.024536 722.750977,548.295715 
	C723.513794,550.489136 724.248962,552.692932 725.056580,554.869873 
	C728.316833,563.657227 728.659668,563.862488 738.126587,563.024597 
	C742.943848,562.598267 744.873474,559.744385 743.267578,555.219666 
	C741.603760,550.531982 739.871765,545.866394 738.060425,541.233704 
	C733.177063,528.744324 728.235535,516.277588 723.231262,503.825806 
	C723.231262,503.825806 723.200989,503.909698 723.224426,503.125671 
	C722.142456,500.134460 721.060486,497.143219 719.892822,493.389496 
	C717.273682,486.577240 714.654541,479.765015 712.092896,472.477997 
	C711.778809,472.127533 711.464722,471.777069 711.288208,471.238708 
	C711.288208,471.238708 711.162598,471.042633 711.104614,470.236755 
	C710.128906,467.255341 709.292542,464.219269 708.149292,461.303589 
	C705.569763,454.724884 695.250488,452.771698 689.856873,457.865051 
	C689.856873,457.865051 689.752930,457.789215 689.113831,457.989349 
M768.241760,562.053589 
	C768.213135,561.107971 768.184509,560.162292 768.456909,558.657349 
	C770.016785,558.957947 771.828430,558.846069 773.098633,559.621277 
	C791.055908,570.580750 814.758057,563.695679 823.505798,544.651062 
	C823.688293,544.093018 823.870789,543.534973 824.481262,542.480713 
	C825.044556,540.304443 825.607849,538.128174 826.182617,535.193237 
	C826.230164,529.267761 826.526794,523.331909 826.279846,517.418701 
	C825.457092,497.717438 801.986816,479.291656 777.299561,489.872620 
	C774.455383,491.091675 771.747253,492.628326 768.587646,493.362976 
	C767.468811,487.020813 766.656189,487.909882 755.977905,488.064758 
	C751.055786,488.136169 751.457642,492.000336 751.471069,495.359436 
	C751.594604,526.274170 751.740845,557.188782 751.852722,588.103577 
	C751.889526,598.271912 751.851807,598.156128 762.053101,598.091064 
	C766.485352,598.062744 768.725769,596.516479 768.308411,591.144043 
	C768.231323,581.679321 768.154175,572.214539 768.241760,562.053589 
M872.244812,548.181274 
	C862.825317,548.136841 859.879333,545.386169 859.743652,536.143616 
	C859.624023,527.998657 859.986450,519.838135 859.612915,511.708588 
	C859.389221,506.838898 860.252747,503.641541 866.799927,503.934753 
	C869.127197,503.952179 871.460083,503.872742 873.780579,504.007233 
	C878.641785,504.288940 880.156494,501.805115 880.082764,497.278015 
	C879.961121,489.803467 879.262695,488.571960 873.979309,488.281769 
	C869.407471,488.030609 862.745667,489.399384 860.801086,486.990234 
	C858.385010,483.996857 860.077454,477.832367 859.575439,473.081879 
	C859.356873,471.013672 858.092773,469.055969 857.365784,466.875427 
	C857.365784,466.875427 857.440979,466.799652 857.440979,466.799652 
	C857.440979,466.799652 857.370544,467.050293 856.439575,466.908508 
	C853.951660,466.955841 851.463745,467.003174 848.412109,466.772125 
	C843.024048,467.471588 842.823547,467.833374 843.182983,476.726440 
	C843.240967,478.151917 843.298950,479.577362 843.243591,481.502747 
	C843.284424,481.668701 843.325195,481.834625 843.181519,482.742035 
	C843.217590,483.499634 843.253601,484.257202 843.088806,485.858826 
	C842.524719,489.679108 839.520691,487.687897 837.561829,488.169617 
	C835.251709,488.737762 831.106201,488.926483 830.932739,489.866089 
	C830.202087,493.824127 830.116760,498.124329 831.010132,502.020752 
	C831.271851,503.161804 835.565674,503.968018 837.978943,503.892365 
	C841.911865,503.769012 843.151794,505.019531 843.073547,508.987671 
	C842.863586,519.637573 842.710754,530.313965 843.241211,540.944702 
	C843.645081,549.039185 846.688232,556.153198 854.967529,560.753601 
	C860.276733,561.731201 865.557129,563.287903 870.901733,563.553772 
	C879.397278,563.976257 880.699158,562.304199 880.549561,553.852783 
	C880.448303,548.138123 878.801086,546.902832 872.244812,548.181274 
M438.312042,554.323914 
	C438.241028,553.889832 438.169983,553.455811 438.287170,552.097107 
	C438.218048,533.390930 438.148926,514.684692 438.210907,495.491638 
	C438.163086,495.330536 438.115234,495.169403 438.235779,494.500946 
	C438.187531,494.329407 438.139313,494.157837 438.254852,493.333740 
	C438.190338,492.891937 438.125824,492.450134 438.217651,491.256165 
	C437.499817,490.325104 436.781982,489.394043 435.320129,488.114014 
	C433.154877,488.103577 430.989471,488.071777 428.824402,488.086731 
	C422.060425,488.133392 421.825623,488.380554 421.824554,495.195831 
	C421.822693,507.189941 421.971100,519.186646 421.768738,531.177368 
	C421.596924,541.360657 413.856415,548.835083 403.952728,548.843750 
	C394.909821,548.851685 389.358185,542.191345 389.302643,531.133240 
	C389.248291,520.305176 389.256805,509.476562 389.284454,498.648315 
	C389.313110,487.424866 388.664032,486.847626 377.444336,488.021149 
	C374.499268,488.329163 372.925934,489.551971 372.949036,492.751678 
	C373.059753,508.076721 372.728363,523.413147 373.206940,538.725098 
	C373.697815,554.429565 384.922455,564.410400 400.614288,564.253540 
	C408.597656,564.173706 415.196991,560.945557 420.856171,555.927002 
	C421.928986,558.386169 422.681824,562.086731 423.730621,562.172546 
	C428.153198,562.534668 432.664032,561.818909 437.801758,560.930359 
	C437.910706,558.941467 438.019623,556.952576 438.312042,554.323914 
M175.729279,521.986145 
	C176.503998,522.796875 177.404236,523.520813 178.034225,524.431702 
	C185.038956,534.559570 192.472946,544.433044 198.809143,554.965820 
	C202.980133,561.899292 208.291214,563.957336 215.741699,562.973877 
	C219.948654,562.418457 221.586990,559.851929 219.451691,556.144348 
	C217.712219,553.123962 215.667053,550.275696 213.693527,547.394836 
	C207.727615,538.686096 201.730591,529.998657 195.669495,521.192200 
	C196.639740,520.652954 197.038300,520.354370 197.486298,520.193481 
	C215.070999,513.880249 223.159485,500.178101 220.048019,481.950928 
	C217.451813,466.742157 204.016449,456.135956 186.800934,455.921326 
	C175.144928,455.776001 163.484268,455.988190 151.828812,455.821564 
	C147.271683,455.756409 145.736618,457.607513 145.758041,462.092560 
	C145.901291,492.069061 145.851044,522.046509 145.876099,552.023621 
	C145.886200,564.116394 144.302582,562.814941 157.315277,563.064148 
	C161.547852,563.145142 162.881500,561.244263 162.839951,557.353760 
	C162.733231,547.362488 162.781296,537.369629 162.768372,527.377380 
	C162.766083,525.610962 162.768051,523.844543 162.768051,521.865784 
	C167.264862,521.865784 171.067963,521.865784 175.729279,521.986145 
M637.793335,554.302002 
	C640.105713,551.555420 643.524292,549.060913 639.781372,545.001587 
	C635.539978,540.401550 631.489075,540.035706 626.812561,543.443237 
	C624.153687,545.380615 621.288696,547.270142 618.225891,548.377014 
	C605.455322,552.992004 590.846680,544.613586 589.973572,532.071533 
	C591.622620,532.071533 593.250122,532.071899 594.877686,532.071533 
	C609.873779,532.068054 624.869934,532.045532 639.865906,532.076355 
	C642.934082,532.082642 645.401550,531.760010 645.937500,527.858398 
	C647.955322,513.171204 640.687683,498.151337 627.905884,491.002350 
	C615.511108,484.069794 597.577576,485.774719 586.518860,494.937073 
	C570.411682,508.282104 567.940918,535.069397 581.318726,551.314514 
	C594.894043,567.799561 619.879578,569.349731 637.793335,554.302002 
M291.230286,532.056396 
	C295.979950,532.737488 297.749023,530.402893 298.058472,525.891479 
	C299.928101,498.635437 275.297699,479.874329 249.549301,489.028412 
	C227.612076,496.827545 218.139084,525.330750 230.781631,546.716553 
	C244.701233,570.262512 276.000702,569.331299 291.778778,552.531067 
	C292.979462,551.252563 294.098541,548.847656 293.731964,547.335754 
	C292.413727,541.899109 284.505371,539.548096 280.062500,542.857788 
	C277.937347,544.440857 275.751221,546.015686 273.395752,547.203735 
	C258.578491,554.677368 242.347748,543.680542 242.404419,532.051147 
	C258.365112,532.051147 274.328674,532.051147 291.230286,532.056396 
M307.800903,501.440155 
	C303.156433,514.553162 308.086731,525.148682 321.146912,529.574402 
	C327.278748,531.652283 333.620667,533.105774 339.772888,535.129517 
	C343.188263,536.252930 346.334808,538.168579 346.028870,542.495972 
	C345.717834,546.896362 342.425385,548.789368 338.706116,549.573730 
	C331.212036,551.154053 324.584290,549.112122 318.829071,544.040222 
	C314.182434,539.945251 311.283600,540.114197 307.483673,544.496216 
	C303.332764,549.282959 303.590973,551.842041 308.662598,556.179871 
	C319.537384,565.481201 339.032379,567.323975 351.482391,560.233948 
	C356.969696,557.109070 360.678894,552.585266 362.066498,546.380310 
	C364.734406,534.449890 358.992889,524.994812 346.258484,520.806396 
	C340.585938,518.940674 334.671204,517.824280 328.918182,516.185852 
	C325.000214,515.070068 321.533264,512.990723 322.208984,508.262665 
	C322.862579,503.689301 326.729675,502.463257 330.715668,502.003174 
	C337.627899,501.205353 343.375519,503.699524 348.470795,508.276001 
	C352.894501,512.249329 355.780457,508.015991 358.694580,505.776123 
	C361.594086,503.547485 362.049133,500.556213 359.442780,497.528809 
	C345.564728,481.408997 315.187347,484.439728 307.800903,501.440155 
z"/>
<path fill="#354350" opacity="1.000000" stroke="none" 
	d="
M468.218323,536.569275 
	C468.308319,543.875061 468.454193,551.180786 468.461243,558.486633 
	C468.464142,561.477966 466.924957,562.823120 463.756805,562.969238 
	C451.893341,563.516418 451.921387,563.605469 451.912842,551.670410 
	C451.899170,532.509949 451.998047,513.347351 451.714233,494.190582 
	C451.641449,489.280243 453.293091,487.408936 458.029572,488.026154 
	C458.685089,488.111572 459.365387,488.091431 460.026733,488.033966 
	C464.478333,487.647064 468.454803,487.995087 468.731537,494.509796 
	C483.944916,484.063995 498.068512,483.200836 511.326263,497.420685 
	C512.429199,496.473297 513.609924,495.423828 514.827393,494.418854 
	C524.717712,486.254486 535.840515,484.487610 547.585999,489.174011 
	C558.451172,493.509247 562.854736,502.807556 563.233093,513.824890 
	C563.741699,528.634827 563.511047,543.470032 563.614624,558.294189 
	C563.635803,561.332275 562.295044,562.771240 559.148071,563.008301 
	C547.552429,563.881653 547.137146,563.520996 547.130920,551.734619 
	C547.125000,540.405823 547.329651,529.065613 546.894653,517.751465 
	C546.487732,507.169830 538.962830,501.250397 529.289795,503.192200 
	C521.964478,504.662720 516.924072,510.922791 516.746399,519.687256 
	C516.506653,531.510681 516.651123,543.343384 516.731201,555.171387 
	C516.778992,562.221313 516.185913,562.922058 509.171509,562.937622 
	C507.838623,562.940552 506.498260,562.836792 505.174255,562.943176 
	C501.236115,563.259644 499.853973,561.344116 499.888733,557.582642 
	C499.991852,546.420471 499.932495,535.256653 499.925293,524.093506 
	C499.923889,521.928040 499.993317,519.752686 499.819977,517.598877 
	C499.129456,509.018250 495.271423,504.017181 488.715393,503.051422 
	C480.377777,501.823273 472.885345,506.173340 470.048615,513.955566 
	C469.539307,515.352783 469.276886,516.839966 468.414062,518.789917 
	C467.927643,530.787964 467.927643,542.281738 467.927643,553.775574 
	C468.024536,553.781860 468.121429,553.788147 468.218323,553.794434 
	C468.218323,548.052673 468.218323,542.310974 468.218323,536.569275 
M469.431702,494.915497 
	C469.507111,494.689667 469.582550,494.463837 469.657990,494.238007 
	C469.436707,494.311493 469.215424,494.384979 469.431702,494.915497 
z"/>
<path fill="#33424D" opacity="1.000000" stroke="none" 
	d="
M175.300171,521.925964 
	C171.067963,521.865784 167.264862,521.865784 162.768051,521.865784 
	C162.768051,523.844543 162.766083,525.610962 162.768372,527.377380 
	C162.781296,537.369629 162.733231,547.362488 162.839951,557.353760 
	C162.881500,561.244263 161.547852,563.145142 157.315277,563.064148 
	C144.302582,562.814941 145.886200,564.116394 145.876099,552.023621 
	C145.851044,522.046509 145.901291,492.069061 145.758041,462.092560 
	C145.736618,457.607513 147.271683,455.756409 151.828812,455.821564 
	C163.484268,455.988190 175.144928,455.776001 186.800934,455.921326 
	C204.016449,456.135956 217.451813,466.742157 220.048019,481.950928 
	C223.159485,500.178101 215.070999,513.880249 197.486298,520.193481 
	C197.038300,520.354370 196.639740,520.652954 195.669495,521.192200 
	C201.730591,529.998657 207.727615,538.686096 213.693527,547.394836 
	C215.667053,550.275696 217.712219,553.123962 219.451691,556.144348 
	C221.586990,559.851929 219.948654,562.418457 215.741699,562.973877 
	C208.291214,563.957336 202.980133,561.899292 198.809143,554.965820 
	C192.472946,544.433044 185.038956,534.559570 178.034225,524.431702 
	C177.404236,523.520813 176.503998,522.796875 175.300171,521.925964 
M203.567886,491.001953 
	C203.784912,480.731689 198.853714,473.428345 189.395920,472.419678 
	C180.740234,471.496552 171.908539,472.223846 163.141602,472.223846 
	C163.141602,483.535675 163.141602,494.581726 163.141602,505.862854 
	C171.375168,505.862854 179.192276,506.162140 186.976501,505.784302 
	C195.960922,505.348206 201.158356,500.617706 203.567886,491.001953 
z"/>
<path fill="#33424D" opacity="1.000000" stroke="none" 
	d="
M637.535889,554.544189 
	C619.879578,569.349731 594.894043,567.799561 581.318726,551.314514 
	C567.940918,535.069397 570.411682,508.282104 586.518860,494.937073 
	C597.577576,485.774719 615.511108,484.069794 627.905884,491.002350 
	C640.687683,498.151337 647.955322,513.171204 645.937500,527.858398 
	C645.401550,531.760010 642.934082,532.082642 639.865906,532.076355 
	C624.869934,532.045532 609.873779,532.068054 594.877686,532.071533 
	C593.250122,532.071899 591.622620,532.071533 589.973572,532.071533 
	C590.846680,544.613586 605.455322,552.992004 618.225891,548.377014 
	C621.288696,547.270142 624.153687,545.380615 626.812561,543.443237 
	C631.489075,540.035706 635.539978,540.401550 639.781372,545.001587 
	C643.524292,549.060913 640.105713,551.555420 637.535889,554.544189 
M614.498474,518.436890 
	C619.398438,518.436890 624.298340,518.436890 629.317993,518.436890 
	C627.606506,507.820129 619.322449,501.564026 608.715637,502.118134 
	C598.854797,502.633270 590.734863,509.628632 590.172241,518.093384 
	C590.309937,518.186768 590.447266,518.361084 590.585449,518.361755 
	C598.223083,518.396790 605.860840,518.417358 614.498474,518.436890 
z"/>
<path fill="#34434E" opacity="1.000000" stroke="none" 
	d="
M290.761292,532.053772 
	C274.328674,532.051147 258.365112,532.051147 242.404419,532.051147 
	C242.347748,543.680542 258.578491,554.677368 273.395752,547.203735 
	C275.751221,546.015686 277.937347,544.440857 280.062500,542.857788 
	C284.505371,539.548096 292.413727,541.899109 293.731964,547.335754 
	C294.098541,548.847656 292.979462,551.252563 291.778778,552.531067 
	C276.000702,569.331299 244.701233,570.262512 230.781631,546.716553 
	C218.139084,525.330750 227.612076,496.827545 249.549301,489.028412 
	C275.297699,479.874329 299.928101,498.635437 298.058472,525.891479 
	C297.749023,530.402893 295.979950,532.737488 290.761292,532.053772 
M245.489349,519.404114 
	C249.340530,519.210022 253.191727,519.015930 257.664917,518.601196 
	C258.093597,518.669678 258.522278,518.738159 259.522095,519.439636 
	C266.354828,519.607361 273.187317,519.826172 280.020752,519.862366 
	C280.692017,519.865967 281.369171,518.748962 282.068695,517.383545 
	C279.003021,507.775299 272.454803,502.407471 263.459930,502.129089 
	C253.813629,501.830597 246.290833,506.646545 242.990234,515.014465 
	C242.092361,517.290771 241.736130,518.831665 245.489349,519.404114 
z"/>
<path fill="#34434E" opacity="1.000000" stroke="none" 
	d="
M437.142578,561.497437 
	C432.664032,561.818909 428.153198,562.534668 423.730621,562.172546 
	C422.681824,562.086731 421.928986,558.386169 420.856171,555.927002 
	C415.196991,560.945557 408.597656,564.173706 400.614288,564.253540 
	C384.922455,564.410400 373.697815,554.429565 373.206940,538.725098 
	C372.728363,523.413147 373.059753,508.076721 372.949036,492.751678 
	C372.925934,489.551971 374.499268,488.329163 377.444336,488.021149 
	C388.664032,486.847626 389.313110,487.424866 389.284454,498.648315 
	C389.256805,509.476562 389.248291,520.305176 389.302643,531.133240 
	C389.358185,542.191345 394.909821,548.851685 403.952728,548.843750 
	C413.856415,548.835083 421.596924,541.360657 421.768738,531.177368 
	C421.971100,519.186646 421.822693,507.189941 421.824554,495.195831 
	C421.825623,488.380554 422.060425,488.133392 428.824402,488.086731 
	C430.989471,488.071777 433.154877,488.103577 435.689575,488.662445 
	C436.726440,490.143372 437.393890,491.075836 438.061279,492.008331 
	C438.125824,492.450134 438.190338,492.891937 438.009216,493.751953 
	C437.699921,494.276367 437.557037,494.437317 437.586151,494.479492 
	C437.720337,494.673889 437.902466,494.835144 438.067413,495.008301 
	C438.115234,495.169403 438.163086,495.330536 437.849304,496.033447 
	C437.326477,497.378448 437.025940,498.181396 437.024567,498.984833 
	C436.996094,515.779968 436.978699,532.575256 437.047516,549.370117 
	C437.052521,550.588745 437.732697,551.804565 438.098938,553.021729 
	C438.169983,553.455811 438.241028,553.889832 437.918030,554.929626 
	C437.396851,557.522705 437.269714,559.510071 437.142578,561.497437 
z"/>
<path fill="#33424D" opacity="1.000000" stroke="none" 
	d="
M307.926758,501.075073 
	C315.187347,484.439728 345.564728,481.408997 359.442780,497.528809 
	C362.049133,500.556213 361.594086,503.547485 358.694580,505.776123 
	C355.780457,508.015991 352.894501,512.249329 348.470795,508.276001 
	C343.375519,503.699524 337.627899,501.205353 330.715668,502.003174 
	C326.729675,502.463257 322.862579,503.689301 322.208984,508.262665 
	C321.533264,512.990723 325.000214,515.070068 328.918182,516.185852 
	C334.671204,517.824280 340.585938,518.940674 346.258484,520.806396 
	C358.992889,524.994812 364.734406,534.449890 362.066498,546.380310 
	C360.678894,552.585266 356.969696,557.109070 351.482391,560.233948 
	C339.032379,567.323975 319.537384,565.481201 308.662598,556.179871 
	C303.590973,551.842041 303.332764,549.282959 307.483673,544.496216 
	C311.283600,540.114197 314.182434,539.945251 318.829071,544.040222 
	C324.584290,549.112122 331.212036,551.154053 338.706116,549.573730 
	C342.425385,548.789368 345.717834,546.896362 346.028870,542.495972 
	C346.334808,538.168579 343.188263,536.252930 339.772888,535.129517 
	C333.620667,533.105774 327.278748,531.652283 321.146912,529.574402 
	C308.086731,525.148682 303.156433,514.553162 307.926758,501.075073 
z"/>
<path fill="#6584D7" opacity="1.000000" stroke="none" 
	d="
M672.863159,500.560547 
	C675.957458,492.012573 679.051819,483.464630 682.472656,475.091919 
	C680.918579,481.064148 679.116333,486.888184 677.132690,492.649719 
	C675.535217,497.289429 678.441040,503.628845 682.963318,504.188385 
	C682.561340,502.657745 682.114807,501.282867 681.850525,499.873810 
	C681.474854,497.870636 681.233215,495.842285 680.934326,493.824646 
	C682.669617,494.702393 684.393066,495.604980 686.146973,496.443909 
	C686.732971,496.724213 687.396912,496.841736 688.019836,497.445496 
	C687.060425,502.407990 686.106384,506.958618 685.205444,511.630829 
	C685.258545,511.752380 685.125366,511.981842 684.799805,512.143982 
	C683.523010,515.832336 682.571777,519.358582 682.106506,522.971924 
	C692.599670,523.059082 702.606873,523.059082 713.037048,523.059082 
	C710.706543,515.941162 708.652771,509.668304 706.994690,503.333252 
	C708.249390,504.269653 709.950867,505.384186 709.831970,506.248230 
	C708.999573,512.297363 715.329224,514.128174 716.895874,518.688843 
	C716.933655,518.798706 717.793213,518.626221 717.747925,518.630066 
	C719.016663,516.655212 720.075134,515.007629 721.133667,513.360046 
	C722.145691,515.645752 723.157776,517.931396 724.818481,521.682129 
	C725.316467,519.419617 726.014832,518.037842 725.823425,516.792847 
	C725.153870,512.437012 724.177185,508.128387 723.317139,503.801849 
	C728.235535,516.277588 733.177063,528.744324 738.060425,541.233704 
	C739.871765,545.866394 741.603760,550.531982 743.267578,555.219666 
	C744.873474,559.744385 742.943848,562.598267 738.126587,563.024597 
	C728.659668,563.862488 728.316833,563.657227 725.056580,554.869873 
	C724.248962,552.692932 723.513794,550.489136 722.750977,548.295715 
	C719.526611,539.024536 719.527405,539.024292 709.038330,538.620178 
	C698.529175,538.161316 688.786133,538.232361 679.075928,537.702393 
	C676.096985,537.539856 671.447144,539.636230 670.538208,533.976501 
	C670.477173,533.596375 669.522888,533.276794 668.933777,533.077454 
	C664.242554,531.490112 663.475464,529.134766 665.217285,524.382019 
	C667.069763,519.327576 668.327332,514.054993 669.844666,508.877686 
	C669.844666,508.877686 669.936035,508.974091 670.192749,508.769470 
	C671.253967,505.896759 672.058594,503.228668 672.863159,500.560547 
z"/>
<path fill="#6584D7" opacity="1.000000" stroke="none" 
	d="
M823.032043,545.015015 
	C814.758057,563.695679 791.055908,570.580750 773.098633,559.621277 
	C771.828430,558.846069 770.016785,558.957947 768.040405,558.794556 
	C767.077576,563.619995 766.710266,568.340210 765.880737,572.977844 
	C765.616821,574.453369 764.352966,576.531372 763.138733,576.869690 
	C761.379822,577.359863 758.202087,577.209961 757.479126,576.113525 
	C755.477966,573.078613 753.298340,569.442444 753.206299,565.990173 
	C752.771179,549.675659 753.010742,533.343201 753.354126,517.055176 
	C755.127075,518.382141 756.482727,519.767456 758.011963,520.923157 
	C758.911072,521.602600 760.355652,522.579590 761.090027,522.280701 
	C764.214783,521.008911 768.912415,521.464722 768.688965,515.901672 
	C768.653320,515.015076 770.432434,514.055603 771.271362,513.501465 
	C770.207397,517.213867 768.872620,520.497620 768.351624,523.905884 
	C766.779175,534.193359 772.469421,544.123718 781.680176,547.749146 
	C790.725525,551.309448 801.307068,548.564453 806.463989,540.399109 
	C808.946655,536.468262 809.778931,531.494995 811.602600,527.202026 
	C813.754333,529.485291 813.983704,531.188293 812.080139,533.812805 
	C810.839111,535.523865 810.322021,539.841187 811.365295,540.699097 
	C813.610291,542.545227 815.291687,544.038757 815.476929,547.090515 
	C815.515320,547.722778 817.139893,548.258850 817.250366,548.330566 
	C819.627747,546.967224 821.329895,545.991089 823.032043,545.015015 
z"/>
<path fill="#5990DA" opacity="1.000000" stroke="none" 
	d="
M723.274231,503.813843 
	C724.177185,508.128387 725.153870,512.437012 725.823425,516.792847 
	C726.014832,518.037842 725.316467,519.419617 724.818481,521.682129 
	C723.157776,517.931396 722.145691,515.645752 721.133667,513.360046 
	C720.075134,515.007629 719.016663,516.655212 717.747925,518.630066 
	C717.793213,518.626221 716.933655,518.798706 716.895874,518.688843 
	C715.329224,514.128174 708.999573,512.297363 709.831970,506.248230 
	C709.950867,505.384186 708.249390,504.269653 707.019409,503.250305 
	C706.648438,503.229584 706.792908,503.144073 706.822876,502.819641 
	C706.474365,502.028809 706.095947,501.562439 705.497192,500.821167 
	C702.761963,493.752472 700.246948,486.958618 697.655090,479.957031 
	C697.026978,480.814575 696.559387,481.452850 695.815063,482.295502 
	C695.419861,483.169678 695.301514,483.839478 695.232788,484.640686 
	C695.282410,484.772064 695.138672,485.013458 694.808105,485.165253 
	C693.727295,487.582306 692.977051,489.847595 692.163757,492.134766 
	C692.100708,492.156677 692.234192,492.152771 691.917725,492.296204 
	C690.409180,493.970947 689.217163,495.502289 688.025146,497.033630 
	C687.396912,496.841736 686.732971,496.724213 686.146973,496.443909 
	C684.393066,495.604980 682.669617,494.702393 680.934326,493.824646 
	C681.233215,495.842285 681.474854,497.870636 681.850525,499.873810 
	C682.114807,501.282867 682.561340,502.657745 682.963318,504.188385 
	C678.441040,503.628845 675.535217,497.289429 677.132690,492.649719 
	C679.116333,486.888184 680.918579,481.064148 682.731445,474.847778 
	C682.663635,474.428406 682.654541,474.215149 683.037354,473.934204 
	C685.531067,468.365265 687.642029,463.077240 689.752930,457.789215 
	C689.752930,457.789215 689.856873,457.865051 690.261902,457.877319 
	C691.623108,457.700439 692.580383,457.516724 693.535278,457.321259 
	C701.968628,455.594391 703.954407,456.547638 707.773560,464.183380 
	C708.914429,466.464203 710.033508,468.755920 711.162598,471.042633 
	C711.162598,471.042633 711.288208,471.238708 711.231201,471.576721 
	C711.461304,472.260742 711.748352,472.606750 712.035400,472.952759 
	C714.654541,479.765015 717.273682,486.577240 719.944580,494.159546 
	C721.064575,497.922943 722.132812,500.916321 723.200989,503.909698 
	C723.200989,503.909698 723.231262,503.825806 723.274231,503.813843 
z"/>
<path fill="#5395D9" opacity="1.000000" stroke="none" 
	d="
M823.268921,544.833008 
	C821.329895,545.991089 819.627747,546.967224 817.250366,548.330566 
	C817.139893,548.258850 815.515320,547.722778 815.476929,547.090515 
	C815.291687,544.038757 813.610291,542.545227 811.365295,540.699097 
	C810.322021,539.841187 810.839111,535.523865 812.080139,533.812805 
	C813.983704,531.188293 813.754333,529.485291 811.528076,526.798950 
	C811.229858,525.097168 811.250427,524.006897 811.460327,522.700439 
	C811.421082,521.660645 811.192566,520.836914 810.796509,519.696777 
	C808.511902,511.682831 804.273926,505.807831 796.341248,503.377106 
	C788.502502,500.975189 781.596924,503.139496 774.998108,508.112030 
	C774.071777,508.051331 773.542297,508.033691 772.902466,507.726868 
	C773.652832,505.146759 774.513550,502.855804 775.776306,499.494812 
	C773.282593,500.834625 771.571472,501.753998 770.289795,502.442596 
	C769.484924,499.839294 768.741638,497.435333 768.260803,494.955383 
	C768.689880,494.577515 768.856567,494.275604 769.012817,493.986206 
	C769.002319,493.998749 768.976074,494.017761 768.976074,494.017761 
	C771.747253,492.628326 774.455383,491.091675 777.299561,489.872620 
	C801.986816,479.291656 825.457092,497.717438 826.279846,517.418701 
	C826.526794,523.331909 826.230164,529.267761 825.885681,535.769409 
	C825.076904,538.556091 824.565063,540.766479 824.053223,542.976929 
	C823.870789,543.534973 823.688293,544.093018 823.268921,544.833008 
z"/>
<path fill="#4BA2DA" opacity="1.000000" stroke="none" 
	d="
M848.975830,467.050507 
	C851.463745,467.003174 853.951660,466.955841 856.889832,466.967773 
	C857.340088,467.027008 857.303589,467.048065 857.303589,467.048065 
	C858.092773,469.055969 859.356873,471.013672 859.575439,473.081879 
	C860.077454,477.832367 858.385010,483.996857 860.801086,486.990234 
	C862.745667,489.399384 869.407471,488.030609 873.979309,488.281769 
	C879.262695,488.571960 879.961121,489.803467 880.082764,497.278015 
	C880.156494,501.805115 878.641785,504.288940 873.780579,504.007233 
	C871.460083,503.872742 869.127197,503.952179 866.096802,503.640717 
	C859.096985,502.158508 858.014099,503.028351 858.001343,509.338470 
	C857.988586,515.648193 858.195435,521.967957 857.876587,528.261597 
	C857.779724,530.174255 856.531067,533.396912 855.337952,533.632874 
	C851.532471,534.385376 852.263245,530.869385 851.830505,528.576477 
	C851.754761,528.175110 851.327087,527.840088 850.477539,526.668579 
	C849.559204,529.000122 848.885803,530.709717 848.212402,532.419312 
	C847.808289,532.368164 847.404236,532.316956 847.000122,532.265808 
	C847.000122,528.389648 847.259460,524.491089 846.927429,520.643616 
	C846.593567,516.775085 845.465149,512.979370 845.051758,509.112549 
	C844.305481,502.132385 844.415894,501.929413 837.535217,502.068695 
	C833.527649,502.149780 831.807739,500.937012 831.924438,496.691467 
	C832.100464,490.288818 832.062927,490.119476 838.635254,489.990814 
	C839.949402,489.965057 841.391541,490.062317 842.544495,489.567047 
	C844.896423,488.556732 845.712585,486.967438 843.289673,485.014801 
	C843.253601,484.257202 843.217590,483.499634 843.469116,482.343018 
	C843.623474,481.630280 843.490173,481.316559 843.356934,481.002869 
	C843.298950,479.577362 843.240967,478.151917 843.530518,476.113983 
	C845.897827,472.877838 843.144775,467.375153 848.975830,467.050507 
z"/>
<path fill="#5395D9" opacity="1.000000" stroke="none" 
	d="
M843.189209,485.436829 
	C845.712585,486.967438 844.896423,488.556732 842.544495,489.567047 
	C841.391541,490.062317 839.949402,489.965057 838.635254,489.990814 
	C832.062927,490.119476 832.100464,490.288818 831.924438,496.691467 
	C831.807739,500.937012 833.527649,502.149780 837.535217,502.068695 
	C844.415894,501.929413 844.305481,502.132385 845.051758,509.112549 
	C845.465149,512.979370 846.593567,516.775085 846.927429,520.643616 
	C847.259460,524.491089 847.000122,528.389648 847.000122,532.265808 
	C847.404236,532.316956 847.808289,532.368164 848.212402,532.419312 
	C848.885803,530.709717 849.559204,529.000122 850.477539,526.668579 
	C851.327087,527.840088 851.754761,528.175110 851.830505,528.576477 
	C852.263245,530.869385 851.532471,534.385376 855.337952,533.632874 
	C856.531067,533.396912 857.779724,530.174255 857.876587,528.261597 
	C858.195435,521.967957 857.988586,515.648193 858.001343,509.338470 
	C858.014099,503.028351 859.096985,502.158508 865.636108,503.560608 
	C860.252747,503.641541 859.389221,506.838898 859.612915,511.708588 
	C859.986450,519.838135 859.624023,527.998657 859.743652,536.143616 
	C859.879333,545.386169 862.825317,548.136841 872.932007,548.428589 
	C879.624268,548.708740 878.486877,553.654480 878.631348,556.891846 
	C878.797668,560.617615 876.008362,562.372925 872.225952,561.994019 
	C866.326782,561.402832 860.432251,560.766418 854.535706,560.149170 
	C846.688232,556.153198 843.645081,549.039185 843.241211,540.944702 
	C842.710754,530.313965 842.863586,519.637573 843.073547,508.987671 
	C843.151794,505.019531 841.911865,503.769012 837.978943,503.892365 
	C835.565674,503.968018 831.271851,503.161804 831.010132,502.020752 
	C830.116760,498.124329 830.202087,493.824127 830.932739,489.866089 
	C831.106201,488.926483 835.251709,488.737762 837.561829,488.169617 
	C839.520691,487.687897 842.524719,489.679108 843.189209,485.436829 
z"/>
<path fill="#717ACE" opacity="1.000000" stroke="none" 
	d="
M669.558716,509.072510 
	C668.327332,514.054993 667.069763,519.327576 665.217285,524.382019 
	C663.475464,529.134766 664.242554,531.490112 668.933777,533.077454 
	C669.522888,533.276794 670.477173,533.596375 670.538208,533.976501 
	C671.447144,539.636230 676.096985,537.539856 679.075928,537.702393 
	C688.786133,538.232361 698.529175,538.161316 708.583618,538.559448 
	C699.599548,538.871521 690.287048,539.142761 680.985596,538.928894 
	C676.889832,538.834839 674.675110,539.970581 673.456238,544.100586 
	C671.909241,549.342041 669.727173,554.412537 667.580078,559.455139 
	C665.874695,563.460388 659.351135,565.127686 654.142151,562.834961 
	C649.725159,560.890930 650.760254,557.338989 652.078430,553.910278 
	C657.800903,539.025818 663.539795,524.147766 669.558716,509.072510 
z"/>
<path fill="#717ACE" opacity="1.000000" stroke="none" 
	d="
M753.009827,517.017090 
	C753.010742,533.343201 752.771179,549.675659 753.206299,565.990173 
	C753.298340,569.442444 755.477966,573.078613 757.479126,576.113525 
	C758.202087,577.209961 761.379822,577.359863 763.138733,576.869690 
	C764.352966,576.531372 765.616821,574.453369 765.880737,572.977844 
	C766.710266,568.340210 767.077576,563.619995 767.889893,559.074219 
	C768.184509,560.162292 768.213135,561.107971 768.137695,562.895508 
	C768.018250,573.107788 768.002747,582.478088 767.987244,591.848450 
	C768.725769,596.516479 766.485352,598.062744 762.053101,598.091064 
	C751.851807,598.156128 751.889526,598.271912 751.852722,588.103577 
	C751.740845,557.188782 751.594604,526.274170 751.471069,495.359436 
	C751.457642,492.000336 751.055786,488.136169 755.977905,488.064758 
	C766.656189,487.909882 767.468811,487.020813 768.781860,493.690369 
	C768.976074,494.017761 769.002319,493.998749 768.746948,493.896912 
	C768.311707,493.846008 768.131836,493.896973 767.603271,493.874268 
	C766.904724,493.471283 766.335388,493.196259 766.238525,492.804382 
	C764.932373,487.523560 760.718506,488.950958 757.353638,489.200195 
	C753.595520,489.478546 752.851685,492.247223 752.936035,495.657593 
	C753.112000,502.773682 753.002197,509.896851 753.009827,517.017090 
z"/>
<path fill="#5990DA" opacity="1.000000" stroke="none" 
	d="
M854.751587,560.451416 
	C860.432251,560.766418 866.326782,561.402832 872.225952,561.994019 
	C876.008362,562.372925 878.797668,560.617615 878.631348,556.891846 
	C878.486877,553.654480 879.624268,548.708740 873.360413,548.471741 
	C878.801086,546.902832 880.448303,548.138123 880.549561,553.852783 
	C880.699158,562.304199 879.397278,563.976257 870.901733,563.553772 
	C865.557129,563.287903 860.276733,561.731201 854.751587,560.451416 
z"/>
<path fill="#6584D7" opacity="1.000000" stroke="none" 
	d="
M711.133606,470.639709 
	C710.033508,468.755920 708.914429,466.464203 707.773560,464.183380 
	C703.954407,456.547638 701.968628,455.594391 693.535278,457.321259 
	C692.580383,457.516724 691.623108,457.700439 690.233398,457.819672 
	C695.250488,452.771698 705.569763,454.724884 708.149292,461.303589 
	C709.292542,464.219269 710.128906,467.255341 711.133606,470.639709 
z"/>
<path fill="#33424D" opacity="1.000000" stroke="none" 
	d="
M438.193054,552.559448 
	C437.732697,551.804565 437.052521,550.588745 437.047516,549.370117 
	C436.978699,532.575256 436.996094,515.779968 437.024567,498.984833 
	C437.025940,498.181396 437.326477,497.378448 437.783752,496.276917 
	C438.148926,514.684692 438.218048,533.390930 438.193054,552.559448 
z"/>
<path fill="#33424D" opacity="1.000000" stroke="none" 
	d="
M468.324799,536.182617 
	C468.218323,542.310974 468.218323,548.052673 468.218323,553.794434 
	C468.121429,553.788147 468.024536,553.781860 467.927643,553.775574 
	C467.927643,542.281738 467.927643,530.787964 468.282501,519.148926 
	C468.561157,521.254822 468.484924,523.505920 468.250153,526.629333 
	C468.094177,527.862061 468.096802,528.222534 468.099426,528.583008 
	C468.210022,530.987305 468.320648,533.391663 468.324799,536.182617 
z"/>
<path fill="#6584D7" opacity="1.000000" stroke="none" 
	d="
M689.433411,457.889282 
	C687.642029,463.077240 685.531067,468.365265 683.119019,473.865479 
	C684.916504,468.714905 687.015198,463.352142 689.433411,457.889282 
z"/>
<path fill="#6584D7" opacity="1.000000" stroke="none" 
	d="
M768.147827,591.496216 
	C768.002747,582.478088 768.018250,573.107788 768.055420,563.243652 
	C768.154175,572.214539 768.231323,581.679321 768.147827,591.496216 
z"/>
<path fill="#5395D9" opacity="1.000000" stroke="none" 
	d="
M848.693970,466.911316 
	C843.144775,467.375153 845.897827,472.877838 843.619751,475.693298 
	C842.823547,467.833374 843.024048,467.471588 848.693970,466.911316 
z"/>
<path fill="#6584D7" opacity="1.000000" stroke="none" 
	d="
M723.212708,503.517700 
	C722.132812,500.916321 721.064575,497.922943 719.987427,494.540771 
	C721.060486,497.143219 722.142456,500.134460 723.212708,503.517700 
z"/>
<path fill="#717ACE" opacity="1.000000" stroke="none" 
	d="
M672.597229,500.824677 
	C672.058594,503.228668 671.253967,505.896759 670.131348,508.744080 
	C670.652588,506.311829 671.491943,503.700317 672.597229,500.824677 
z"/>
<path fill="#6584D7" opacity="1.000000" stroke="none" 
	d="
M824.267212,542.728821 
	C824.565063,540.766479 825.076904,538.556091 825.879944,536.148804 
	C825.607849,538.128174 825.044556,540.304443 824.267212,542.728821 
z"/>
<path fill="#33424D" opacity="1.000000" stroke="none" 
	d="
M437.472168,561.213867 
	C437.269714,559.510071 437.396851,557.522705 437.826294,555.249512 
	C438.019623,556.952576 437.910706,558.941467 437.472168,561.213867 
z"/>
<path fill="#33424D" opacity="1.000000" stroke="none" 
	d="
M438.139465,491.632263 
	C437.393890,491.075836 436.726440,490.143372 436.061584,488.836945 
	C436.781982,489.394043 437.499817,490.325104 438.139465,491.632263 
z"/>
<path fill="#354350" opacity="1.000000" stroke="none" 
	d="
M468.248596,528.426086 
	C468.096802,528.222534 468.094177,527.862061 468.093994,526.959045 
	C468.196838,527.034058 468.297272,527.651611 468.248596,528.426086 
z"/>
<path fill="#5395D9" opacity="1.000000" stroke="none" 
	d="
M843.300232,481.252808 
	C843.490173,481.316559 843.623474,481.630280 843.561401,481.972260 
	C843.325195,481.834625 843.284424,481.668701 843.300232,481.252808 
z"/>
<path fill="#6584D7" opacity="1.000000" stroke="none" 
	d="
M712.064148,472.715393 
	C711.748352,472.606750 711.461304,472.260742 711.162415,471.670685 
	C711.464722,471.777069 711.778809,472.127533 712.064148,472.715393 
z"/>
<path fill="#33424D" opacity="1.000000" stroke="none" 
	d="
M438.151611,494.754639 
	C437.902466,494.835144 437.720337,494.673889 437.586151,494.479492 
	C437.557037,494.437317 437.699921,494.276367 437.927307,494.078217 
	C438.139313,494.157837 438.187531,494.329407 438.151611,494.754639 
z"/>
<path fill="#5395D9" opacity="1.000000" stroke="none" 
	d="
M857.334717,466.961731 
	C857.303589,467.048065 857.340088,467.027008 857.355347,467.038635 
	C857.370544,467.050293 857.440979,466.799652 857.440979,466.799652 
	C857.440979,466.799652 857.365784,466.875427 857.334717,466.961731 
z"/>
<path fill="#EAEAEA" opacity="1.000000" stroke="none" 
	d="
M469.212921,494.687012 
	C469.215424,494.384979 469.436707,494.311493 469.657959,494.238007 
	C469.582550,494.463837 469.507111,494.689667 469.212921,494.687012 
z"/>
<path fill="#EAEAEA" opacity="1.000000" stroke="none" 
	d="
M203.479492,491.390686 
	C201.158356,500.617706 195.960922,505.348206 186.976501,505.784302 
	C179.192276,506.162140 171.375168,505.862854 163.141602,505.862854 
	C163.141602,494.581726 163.141602,483.535675 163.141602,472.223846 
	C171.908539,472.223846 180.740234,471.496552 189.395920,472.419678 
	C198.853714,473.428345 203.784912,480.731689 203.479492,491.390686 
z"/>
<path fill="#EAEAEA" opacity="1.000000" stroke="none" 
	d="
M613.998535,518.438110 
	C605.860840,518.417358 598.223083,518.396790 590.585449,518.361755 
	C590.447266,518.361084 590.309937,518.186768 590.172241,518.093384 
	C590.734863,509.628632 598.854797,502.633270 608.715637,502.118134 
	C619.322449,501.564026 627.606506,507.820129 629.317993,518.436890 
	C624.298340,518.436890 619.398438,518.436890 613.998535,518.438110 
z"/>
<path fill="#EAEAEA" opacity="1.000000" stroke="none" 
	d="
M258.950958,518.806641 
	C258.522278,518.738159 258.093597,518.669678 256.897766,518.614685 
	C252.400330,518.673157 248.670059,518.718140 244.939804,518.763184 
	C241.736130,518.831665 242.092361,517.290771 242.990234,515.014465 
	C246.290833,506.646545 253.813629,501.830597 263.459930,502.129089 
	C272.454803,502.407471 279.003021,507.775299 281.631378,517.809631 
	C273.779694,518.426025 266.365326,518.616333 258.950958,518.806641 
z"/>
<path fill="#33424D" opacity="1.000000" stroke="none" 
	d="
M259.236511,519.123169 
	C266.365326,518.616333 273.779694,518.426025 281.618835,518.193909 
	C281.369171,518.748962 280.692017,519.865967 280.020752,519.862366 
	C273.187317,519.826172 266.354828,519.607361 259.236511,519.123169 
z"/>
<path fill="#33424D" opacity="1.000000" stroke="none" 
	d="
M245.214569,519.083618 
	C248.670059,518.718140 252.400330,518.673157 256.586731,518.724976 
	C253.191727,519.015930 249.340530,519.210022 245.214569,519.083618 
z"/>
<path fill="#EAEAEA" opacity="1.000000" stroke="none" 
	d="
M695.138672,485.013458 
	C695.138672,485.013458 695.282410,484.772064 695.466797,484.395203 
	C695.798035,483.375916 695.944946,482.733521 696.091858,482.091125 
	C696.559387,481.452850 697.026978,480.814575 697.655090,479.957031 
	C700.246948,486.958618 702.761963,493.752472 705.535889,501.128235 
	C706.127563,502.188141 706.460205,502.666107 706.792847,503.144104 
	C706.792908,503.144073 706.648438,503.229584 706.623718,503.312500 
	C708.652771,509.668304 710.706543,515.941162 713.037048,523.059082 
	C702.606873,523.059082 692.599670,523.059082 682.206055,522.611206 
	C682.921570,518.769531 684.023499,515.375671 685.125366,511.981842 
	C685.125366,511.981842 685.258545,511.752380 685.480530,511.368835 
	C687.879761,504.707794 690.056946,498.430267 692.234192,492.152771 
	C692.234192,492.152771 692.100708,492.156677 692.458740,491.962097 
	C693.590759,489.516144 694.364746,487.264801 695.138672,485.013458 
z"/>
<path fill="#717ACE" opacity="1.000000" stroke="none" 
	d="
M691.917725,492.296204 
	C690.056946,498.430267 687.879761,504.707794 685.427490,511.247284 
	C686.106384,506.958618 687.060425,502.407990 688.019775,497.445496 
	C689.217163,495.502289 690.409180,493.970947 691.917725,492.296204 
z"/>
<path fill="#717ACE" opacity="1.000000" stroke="none" 
	d="
M684.799805,512.143982 
	C684.023499,515.375671 682.921570,518.769531 681.720093,522.524048 
	C682.571777,519.358582 683.523010,515.832336 684.799805,512.143982 
z"/>
<path fill="#EAEAEA" opacity="1.000000" stroke="none" 
	d="
M775.394958,508.155121 
	C781.596924,503.139496 788.502502,500.975189 796.341248,503.377106 
	C804.273926,505.807831 808.511902,511.682831 810.781006,520.063660 
	C811.045654,521.470215 811.158264,522.193359 811.270996,522.916565 
	C811.250427,524.006897 811.229858,525.097168 811.283936,526.590637 
	C809.778931,531.494995 808.946655,536.468262 806.463989,540.399109 
	C801.307068,548.564453 790.725525,551.309448 781.680176,547.749146 
	C772.469421,544.123718 766.779175,534.193359 768.351624,523.905884 
	C768.872620,520.497620 770.207397,517.213867 771.445129,513.388062 
	C771.920227,512.692627 772.035583,512.443054 772.315186,511.973572 
	C772.769592,511.233795 772.975037,510.674866 773.183472,510.161987 
	C773.186462,510.208099 773.278870,510.207458 773.568237,510.120544 
	C774.369995,509.407440 774.882507,508.781281 775.394958,508.155121 
z"/>
<path fill="#5990DA" opacity="1.000000" stroke="none" 
	d="
M772.066162,512.154358 
	C772.035583,512.443054 771.920227,512.692627 771.546387,513.016418 
	C770.432434,514.055603 768.653320,515.015076 768.688965,515.901672 
	C768.912415,521.464722 764.214783,521.008911 761.090027,522.280701 
	C760.355652,522.579590 758.911072,521.602600 758.011963,520.923157 
	C756.482727,519.767456 755.127075,518.382141 753.354126,517.055176 
	C753.002197,509.896851 753.112000,502.773682 752.936035,495.657593 
	C752.851685,492.247223 753.595520,489.478546 757.353638,489.200195 
	C760.718506,488.950958 764.932373,487.523560 766.238525,492.804382 
	C766.335388,493.196259 766.904724,493.471283 767.642090,494.144226 
	C768.019348,494.669067 768.008850,494.850220 767.998413,495.031372 
	C768.741638,497.435333 769.484924,499.839294 770.289795,502.442596 
	C771.571472,501.753998 773.282593,500.834625 775.776306,499.494812 
	C774.513550,502.855804 773.652832,505.146759 772.912231,508.094910 
	C773.114563,509.237274 773.196716,509.722351 773.278870,510.207458 
	C773.278870,510.207458 773.186462,510.208099 772.900879,510.305542 
	C772.432190,510.986786 772.249146,511.570557 772.066162,512.154358 
z"/>
<path fill="#717ACE" opacity="1.000000" stroke="none" 
	d="
M694.808105,485.165253 
	C694.364746,487.264801 693.590759,489.516144 692.521790,491.940186 
	C692.977051,489.847595 693.727295,487.582306 694.808105,485.165253 
z"/>
<path fill="#717ACE" opacity="1.000000" stroke="none" 
	d="
M695.815063,482.295502 
	C695.944946,482.733521 695.798035,483.375916 695.417114,484.263794 
	C695.301514,483.839478 695.419861,483.169678 695.815063,482.295502 
z"/>
<path fill="#6584D7" opacity="1.000000" stroke="none" 
	d="
M706.822815,502.819641 
	C706.460205,502.666107 706.127563,502.188141 705.756226,501.403137 
	C706.095947,501.562439 706.474365,502.028809 706.822815,502.819641 
z"/>
<path fill="#6584D7" opacity="1.000000" stroke="none" 
	d="
M773.568237,510.120544 
	C773.196716,509.722351 773.114563,509.237274 773.022583,508.384094 
	C773.542297,508.033691 774.071777,508.051331 774.998108,508.112030 
	C774.882507,508.781281 774.369995,509.407440 773.568237,510.120544 
z"/>
<path fill="#6584D7" opacity="1.000000" stroke="none" 
	d="
M811.460266,522.700439 
	C811.158264,522.193359 811.045654,521.470215 810.948486,520.380127 
	C811.192566,520.836914 811.421082,521.660645 811.460266,522.700439 
z"/>
<path fill="#EAEAEA" opacity="1.000000" stroke="none" 
	d="
M768.260803,494.955383 
	C768.008850,494.850220 768.019348,494.669067 767.990906,494.217896 
	C768.131836,493.896973 768.311707,493.846008 768.757446,493.884369 
	C768.856567,494.275604 768.689880,494.577515 768.260803,494.955383 
z"/>
<path fill="#6584D7" opacity="1.000000" stroke="none" 
	d="
M772.315186,511.973572 
	C772.249146,511.570557 772.432190,510.986786 772.897827,510.259460 
	C772.975037,510.674866 772.769592,511.233795 772.315186,511.973572 
z"/>
</svg>